<?xml version="1.0" standalone="no"?>
<!DOCTYPE svg PUBLIC "-//W3C//DTD SVG 20010904//EN"
 "http://www.w3.org/TR/2001/REC-SVG-20010904/DTD/svg10.dtd">
<svg version="1.0" xmlns="http://www.w3.org/2000/svg"
 width="500.000000pt" height="500.000000pt" viewBox="0 0 500.000000 500.000000"
 preserveAspectRatio="xMidYMid meet">

<g transform="translate(0.000000,500.000000) scale(0.100000,-0.100000)"
fill="#000000" stroke="none">
<path d="M1820 3514 c0 -18 137 -227 155 -236 17 -10 223 -140 460 -293 72
-46 68 -40 -95 134 -146 156 -324 303 -439 361 -45 22 -81 37 -81 34z"/>
<path d="M2165 3355 c126 -118 425 -364 425 -350 0 30 -74 98 -265 241 -131
99 -196 143 -160 109z"/>
<path d="M2016 3178 c4 -7 32 -46 63 -86 60 -80 45 -71 311 -189 167 -74 196
-86 190 -80 -3 3 -93 69 -200 148 -120 87 -227 157 -278 180 -91 43 -97 45
-86 27z"/>
<path d="M2803 3139 c-18 -5 -33 -12 -33 -14 0 -2 25 -12 56 -21 57 -16 184
-13 184 6 0 9 -120 40 -152 39 -13 0 -38 -5 -55 -10z"/>
<path d="M3232 3115 c-90 -19 -166 -36 -169 -38 -2 -3 1 -16 9 -30 l13 -25
159 59 c144 53 186 71 160 68 -5 -1 -83 -16 -172 -34z"/>
<path d="M2684 3058 c-33 -34 -70 -98 -57 -98 3 0 46 23 95 52 91 54 93 61 28
73 -31 5 -39 2 -66 -27z"/>
<path d="M2840 3010 c0 -11 5 -20 10 -20 6 0 10 -8 10 -17 1 -10 6 -31 13 -46
l12 -28 63 56 c34 31 62 61 62 66 0 5 -19 9 -43 9 -31 0 -45 -5 -55 -20 -7
-11 -17 -20 -22 -20 -6 0 -10 9 -10 20 0 13 -7 20 -20 20 -13 0 -20 -7 -20
-20z"/>
<path d="M2510 2984 c8 -10 36 -44 61 -75 25 -30 56 -81 68 -112 25 -61 36
-69 46 -36 4 11 29 68 57 126 27 57 48 106 46 108 -2 2 -36 -19 -76 -46 l-72
-50 -57 44 c-32 24 -65 47 -73 52 -13 8 -13 7 0 -11z"/>
<path d="M2817 2990 c-23 -53 -95 -256 -91 -259 2 -2 26 11 53 30 65 45 80 89
59 181 -9 38 -17 57 -21 48z"/>
<path d="M3018 2937 l-78 -52 1 -90 0 -90 30 75 c29 72 40 89 110 173 17 20
27 37 22 36 -4 0 -43 -24 -85 -52z"/>
<path d="M2190 2924 c61 -103 52 -98 225 -128 86 -16 158 -27 160 -25 3 3
-359 174 -397 188 -6 2 -1 -14 12 -35z"/>
<path d="M2300 2772 c0 -5 17 -18 38 -30 48 -27 155 -39 197 -21 29 11 25 13
-75 30 -58 10 -117 20 -132 23 -16 3 -28 2 -28 -2z"/>
<path d="M2791 2729 c-33 -25 -52 -50 -77 -105 -28 -61 -43 -80 -109 -134 -42
-34 -74 -64 -72 -66 2 -3 42 11 88 31 75 31 92 43 157 114 75 82 79 94 63 164
l-6 28 -44 -32z"/>
<path d="M2077 2733 c-49 -20 -47 -47 3 -51 29 -2 41 3 70 33 l34 35 -35 -1
c-18 0 -51 -7 -72 -16z"/>
<path d="M2637 2676 c-50 -47 -67 -79 -67 -129 l0 -32 40 41 c29 28 46 58 59
102 11 34 18 62 17 62 -2 0 -24 -20 -49 -44z"/>
<path d="M2141 2610 c-57 -55 -97 -100 -88 -100 48 0 206 48 302 92 61 28 114
54 119 59 4 4 -18 10 -50 13 -33 4 -82 13 -110 21 -28 8 -55 15 -60 15 -5 -1
-56 -46 -113 -100z"/>
<path d="M1809 2660 c76 -27 88 -28 129 -18 70 17 46 24 -163 43 -49 5 -48 4
34 -25z"/>
<path d="M1650 2647 c0 -25 -6 -37 -22 -44 -19 -9 -14 -11 29 -10 29 1 53 4
53 6 0 7 -52 81 -56 81 -2 0 -4 -15 -4 -33z"/>
<path d="M2415 2591 c-126 -61 -127 -63 -41 -81 54 -12 154 4 163 26 2 6 3 34
1 62 l-3 51 -120 -58z"/>
<path d="M2000 2614 c-44 -12 -60 -22 -78 -50 -13 -20 -21 -38 -19 -40 13 -14
97 21 135 56 60 56 58 59 -38 34z"/>
<path d="M1789 2576 c19 -20 21 -28 12 -44 -20 -38 -11 -35 28 9 l39 44 -26 6
c-15 4 -38 7 -51 8 l-24 1 22 -24z"/>
<path d="M1685 2508 c-29 -11 -54 -34 -55 -51 0 -16 56 7 85 34 31 31 23 36
-30 17z"/>
<path d="M1907 2434 c-27 -14 -47 -28 -44 -31 10 -9 74 17 92 37 24 26 10 25
-48 -6z"/>
<path d="M2152 2445 c-24 -7 -70 -16 -102 -20 -50 -6 -63 -12 -80 -35 -11 -15
-20 -32 -20 -37 0 -4 23 -6 51 -4 41 2 68 13 130 53 99 63 102 69 21 43z"/>
<path d="M2362 2428 c-68 -17 -121 -32 -118 -35 2 -3 47 -2 100 2 84 6 98 10
128 36 18 15 29 28 23 28 -5 0 -65 -14 -133 -31z"/>
<path d="M1760 2420 c-13 -9 -13 -11 0 -20 21 -14 24 -13 45 10 18 19 17 20
-6 20 -13 0 -31 -5 -39 -10z"/>
<path d="M2090 2361 c-30 -16 -78 -31 -107 -35 -47 -6 -57 -12 -112 -69 -33
-34 -58 -63 -56 -65 2 -2 48 13 102 33 82 30 110 47 171 101 40 35 69 64 65
64 -4 -1 -33 -14 -63 -29z"/>
<path d="M1744 2334 c22 -8 49 -11 65 -7 l26 7 -30 7 c-16 4 -46 7 -65 7 l-35
1 39 -15z"/>
<path d="M1092 2013 c-10 -19 -9 -60 1 -87 4 -11 18 -16 42 -16 31 0 35 -3 35
-25 0 -27 -17 -34 -26 -10 -4 8 -17 15 -30 15 -20 0 -24 -5 -24 -29 0 -33 14
-41 74 -41 50 0 66 13 66 56 0 51 -9 64 -51 70 -29 5 -39 11 -39 25 0 11 7 19
15 19 8 0 15 -4 15 -10 0 -5 14 -10 30 -10 22 0 30 5 30 18 0 30 -22 42 -77
42 -40 0 -54 -4 -61 -17z"/>
<path d="M1335 2018 c-2 -7 -15 -55 -29 -105 l-25 -93 30 0 c19 0 29 5 29 15
0 10 10 15 30 15 20 0 30 -5 30 -15 0 -10 10 -15 30 -15 35 0 34 -5 14 74 -37
148 -31 136 -70 136 -19 0 -37 -6 -39 -12z m48 -95 c5 -25 3 -33 -8 -33 -16 0
-18 12 -9 48 8 28 9 26 17 -15z"/>
<path d="M1520 1925 l0 -105 65 0 c51 0 66 4 73 18 13 23 12 164 0 180 -7 7
-35 12 -74 12 l-64 0 0 -105z m88 47 c2 -15 -2 -22 -12 -22 -11 0 -16 9 -16
26 0 31 23 28 28 -4z m2 -87 c0 -16 -6 -25 -15 -25 -9 0 -15 9 -15 25 0 16 6
25 15 25 9 0 15 -9 15 -25z"/>
<path d="M1740 1925 l0 -105 65 0 c58 0 65 2 65 20 0 16 -7 20 -35 20 -31 0
-35 3 -35 25 0 21 5 25 30 25 23 0 30 4 30 20 0 16 -7 20 -30 20 -23 0 -30 5
-30 19 0 15 8 21 32 23 22 2 34 9 36 21 3 15 -5 17 -62 17 l-66 0 0 -105z"/>
<path d="M1930 1925 l0 -105 30 0 c28 0 30 3 31 38 l1 37 16 -37 c15 -33 22
-38 50 -38 l32 0 -20 39 c-17 34 -18 41 -5 51 18 15 20 91 3 108 -7 7 -39 12
-75 12 l-63 0 0 -105z m88 40 c-2 -14 -7 -26 -13 -26 -5 0 -11 12 -13 26 -2
18 1 25 13 25 12 0 15 -7 13 -25z"/>
<path d="M2150 1990 c0 -36 3 -40 25 -40 23 0 25 4 25 40 0 36 -2 40 -25 40
-22 0 -25 -4 -25 -40z"/>
<path d="M2274 2016 c-3 -7 -4 -33 -2 -57 3 -43 4 -44 41 -47 32 -3 37 -7 37
-28 0 -27 -15 -32 -24 -9 -3 8 -17 15 -31 15 -19 0 -25 -5 -25 -23 0 -34 19
-47 71 -47 57 0 71 15 67 72 -3 41 -5 44 -40 52 -27 7 -38 15 -38 28 0 10 5
18 10 18 6 0 10 -4 10 -10 0 -5 14 -10 30 -10 22 0 30 5 30 18 0 30 -22 42
-77 42 -37 0 -55 -4 -59 -14z"/>
<path d="M2590 1925 l0 -105 63 0 c36 0 68 5 75 12 13 13 17 153 6 182 -5 12
-21 16 -75 16 l-69 0 0 -105z m90 5 c0 -56 -3 -70 -15 -70 -12 0 -15 14 -15
63 0 35 3 67 7 70 17 18 23 1 23 -63z"/>
<path d="M2810 1925 l0 -105 65 0 c58 0 65 2 65 20 0 16 -7 20 -35 20 -31 0
-35 3 -35 25 0 21 5 25 30 25 23 0 30 4 30 20 0 16 -7 20 -30 20 -23 0 -30 4
-30 20 0 16 7 20 35 20 28 0 35 4 35 20 0 18 -7 20 -65 20 l-65 0 0 -105z"/>
<path d="M3012 2018 c-16 -16 -15 -70 1 -90 6 -9 26 -18 42 -20 22 -2 31 -9
33 -25 2 -16 -2 -23 -12 -23 -9 0 -16 7 -16 16 0 21 -54 15 -58 -7 -5 -28 26
-49 73 -49 65 0 87 31 69 97 -4 16 -16 23 -45 28 -29 5 -39 11 -39 26 0 10 7
19 15 19 8 0 15 -4 15 -10 0 -13 47 -13 55 0 3 5 1 19 -5 30 -9 16 -21 20 -63
20 -29 0 -58 -5 -65 -12z"/>
<path d="M3210 1925 l0 -105 30 0 30 0 0 105 0 105 -30 0 -30 0 0 -105z"/>
<path d="M3352 2018 c-16 -16 -16 -170 0 -186 7 -7 33 -12 59 -12 62 0 81 19
77 74 -3 40 -4 41 -40 44 -33 3 -38 0 -38 -17 0 -12 5 -21 10 -21 6 0 10 -9
10 -20 0 -11 -7 -20 -15 -20 -12 0 -15 14 -15 65 0 51 3 65 15 65 8 0 15 -7
15 -15 0 -10 10 -15 30 -15 32 0 38 16 20 51 -9 15 -22 19 -63 19 -29 0 -58
-5 -65 -12z"/>
<path d="M3550 1925 l0 -105 30 0 c29 0 30 2 31 48 l1 47 21 -47 c16 -37 26
-48 44 -48 23 0 23 2 23 105 l0 105 -25 0 c-23 0 -25 -3 -26 -52 l0 -53 -21
53 c-18 46 -24 52 -49 52 l-29 0 0 -105z"/>
<path d="M3782 2018 c-16 -16 -16 -83 1 -96 6 -6 26 -12 42 -14 22 -2 30 -8
30 -22 0 -11 -6 -21 -12 -23 -7 -3 -13 3 -13 12 0 22 -54 16 -58 -6 -5 -28 26
-49 73 -49 65 0 87 31 69 97 -4 16 -16 23 -45 28 -29 5 -39 11 -39 26 0 10 7
19 15 19 8 0 15 -4 15 -10 0 -5 13 -10 29 -10 27 0 29 2 22 28 -7 25 -12 27
-62 30 -33 2 -59 -2 -67 -10z"/>
</g>
</svg>
