<svg version="1.2" xmlns="http://www.w3.org/2000/svg" viewBox="0 0 1000 625" width="1000" height="625">
	<title>New Project</title>
	<style>
		.s0 { fill: #e5a411;stroke: #ffffff;stroke-width: 3.75 } 
	</style>
	<path id="SM" class="s0" aria-label="SM"  d="m451.2 247.8c0 0-29.7-4.9-49.7-4.9-31.2 0-49.7 8.3-49.7 44.1 0 26.2 9.9 36 45.2 41.4 13.1 2.1 14.4 2.5 14.4 5.1 0 3-2.2 4.3-9.7 4.3-18.4 0-47.1-4.1-47.1-4.1l-1.9 33.2c0 0 26.1 6.7 52.9 6.7 32.1 0 49.7-11 49.7-43.1 0-29.4-10.5-34.1-46.3-42.2-12-2.6-13.3-3.6-13.3-6.2 0-2.6 1.8-3.4 9.5-3.4 18.4 0 44.8 2.9 44.8 2.9zm11.7 123.1h43.5v-64.6h2l10.7 63.3h36.4l10.9-63.3h2v64.6h43.5v-125.6h-66.5l-8.1 48-9.8-48h-64.6z"/>
</svg>